<mxfile host="app.diagrams.net" agent="Mozilla/5.0 (Macintosh; Intel Mac OS X 10_15_7) AppleWebKit/537.36 (KHTML, like Gecko) Chrome/127.0.0.0 Safari/537.36" version="24.7.17">
  <diagram name="Page-1" id="fLDA9kr36jp1HS5OPggD">
    <mxGraphModel dx="588" dy="375" grid="1" gridSize="10" guides="1" tooltips="1" connect="1" arrows="1" fold="1" page="1" pageScale="1" pageWidth="827" pageHeight="1169" math="0" shadow="0">
      <root>
        <mxCell id="0" />
        <mxCell id="1" parent="0" />
        <mxCell id="WGssNecwUmQcB5porktd-9" style="rounded=0;orthogonalLoop=1;jettySize=auto;html=1;exitX=0.5;exitY=1;exitDx=0;exitDy=0;entryX=0;entryY=0.5;entryDx=0;entryDy=0;edgeStyle=orthogonalEdgeStyle;" edge="1" parent="1" source="WGssNecwUmQcB5porktd-2" target="WGssNecwUmQcB5porktd-6">
          <mxGeometry relative="1" as="geometry">
            <Array as="points">
              <mxPoint x="185" y="268" />
            </Array>
          </mxGeometry>
        </mxCell>
        <mxCell id="WGssNecwUmQcB5porktd-2" value="&lt;font style=&quot;font-size: 12px;&quot;&gt;Define your research question&lt;/font&gt;&lt;div&gt;&lt;i&gt;&lt;font style=&quot;font-size: 11px;&quot;&gt;is {drug} toxic to {protein}?&lt;/font&gt;&lt;/i&gt;&lt;/div&gt;" style="rounded=1;whiteSpace=wrap;html=1;gradientColor=none;fillColor=default;" vertex="1" parent="1">
          <mxGeometry x="80" y="210" width="180" height="38" as="geometry" />
        </mxCell>
        <mxCell id="WGssNecwUmQcB5porktd-11" style="rounded=0;orthogonalLoop=1;jettySize=auto;html=1;exitX=0.5;exitY=0;exitDx=0;exitDy=0;entryX=0;entryY=0.5;entryDx=0;entryDy=0;edgeStyle=orthogonalEdgeStyle;" edge="1" parent="1" source="WGssNecwUmQcB5porktd-3" target="WGssNecwUmQcB5porktd-6">
          <mxGeometry relative="1" as="geometry">
            <Array as="points">
              <mxPoint x="185" y="268" />
            </Array>
          </mxGeometry>
        </mxCell>
        <mxCell id="WGssNecwUmQcB5porktd-3" value="&lt;font style=&quot;font-size: 12px;&quot;&gt;List your input parameters&lt;/font&gt;&lt;div style=&quot;font-size: 11px;&quot;&gt;&lt;i style=&quot;&quot;&gt;&lt;font style=&quot;font-size: 11px;&quot;&gt;- drug: lidocaine, retigabine&lt;/font&gt;&lt;/i&gt;&lt;/div&gt;&lt;div style=&quot;font-size: 11px;&quot;&gt;&lt;i style=&quot;&quot;&gt;&lt;font style=&quot;font-size: 11px;&quot;&gt;- protein: p33, tau, insuline&lt;/font&gt;&lt;/i&gt;&lt;/div&gt;" style="rounded=1;whiteSpace=wrap;html=1;" vertex="1" parent="1">
          <mxGeometry x="80" y="286" width="180" height="49" as="geometry" />
        </mxCell>
        <mxCell id="WGssNecwUmQcB5porktd-6" value="&lt;div style=&quot;text-align: left;&quot;&gt;&lt;font style=&quot;font-size: 12px;&quot;&gt;&lt;span style=&quot;background-color: initial;&quot;&gt;for dug in [&quot;&lt;/span&gt;&lt;span style=&quot;background-color: initial;&quot;&gt;lidocaine&quot;, &quot;retigabine&quot;&lt;/span&gt;&lt;span style=&quot;background-color: initial;&quot;&gt;]:&lt;/span&gt;&lt;/font&gt;&lt;/div&gt;&lt;div style=&quot;text-align: left;&quot;&gt;&lt;font style=&quot;font-size: 12px;&quot;&gt;&lt;span style=&quot;white-space: pre;&quot;&gt;&#x9;&lt;/span&gt;for protein in [&quot;&lt;span style=&quot;background-color: initial;&quot;&gt;p33&quot;, &quot;tau&quot;, &quot;insuline&quot;&lt;/span&gt;&lt;span style=&quot;background-color: initial;&quot;&gt;]:&lt;/span&gt;&lt;/font&gt;&lt;/div&gt;&lt;div style=&quot;text-align: left;&quot;&gt;&lt;font style=&quot;font-size: 12px;&quot;&gt;&lt;span style=&quot;background-color: initial;&quot;&gt;&lt;span style=&quot;white-space: pre;&quot;&gt;&#x9;&lt;/span&gt;&lt;span style=&quot;white-space: pre;&quot;&gt;&#x9;&lt;/span&gt;litterature_review(f&quot;i&lt;/span&gt;&lt;span style=&quot;background-color: initial; text-align: center;&quot;&gt;s {drug} toxic to {protein}?&quot;&lt;/span&gt;&lt;span style=&quot;background-color: initial;&quot;&gt;)&lt;/span&gt;&lt;/font&gt;&lt;/div&gt;" style="rounded=1;whiteSpace=wrap;html=1;rotation=0;" vertex="1" parent="1">
          <mxGeometry x="305" y="227" width="360" height="82" as="geometry" />
        </mxCell>
      </root>
    </mxGraphModel>
  </diagram>
</mxfile>
